<svg width="56" height="47" fill="none" xmlns="http://www.w3.org/2000/svg"><path d="M4.465 41.757C-8.102 29.251 8.731 2.385 19.625.147c10.924-2.264 35.523 22.325 32.04 31.885-3.486 9.61-34.606 22.258-47.2 9.725Z" fill="url(#a)"/><path d="M4.465 41.757C-8.102 29.251 8.731 2.385 19.625.147c10.924-2.264 35.523 22.325 32.04 31.885-3.486 9.61-34.606 22.258-47.2 9.725Z" fill="#fff" fill-opacity=".5"/><path d="M16.206 40.403c-1.498-.103-2.873-.508-4.123-1.213-1.218-.733-2.252-1.793-3.101-3.18-.818-1.413-1.421-3.152-1.81-5.215-.388-2.093-.485-4.549-.29-7.369.193-2.82.624-5.224 1.292-7.215.67-2.02 1.506-3.66 2.508-4.918 1.03-1.257 2.199-2.151 3.504-2.681 1.335-.528 2.751-.74 4.25-.638 1.497.103 2.857.507 4.077 1.21 1.221.704 2.241 1.748 3.06 3.133.823 1.355 1.413 3.063 1.773 5.124.39 2.063.488 4.505.294 7.324-.194 2.82-.626 5.24-1.296 7.26-.64 1.992-1.46 3.633-2.464 4.921-1.003 1.289-2.159 2.213-3.466 2.772-1.308.56-2.71.788-4.209.685Zm.195-3.484c.998.069 1.895-.091 2.689-.48.794-.387 1.49-1.062 2.087-2.025.597-.962 1.084-2.242 1.46-3.84.406-1.624.69-3.611.852-5.961.162-2.35.166-4.342.012-5.976-.15-1.663-.457-3.012-.917-4.047-.46-1.035-1.056-1.799-1.79-2.292-.733-.493-1.6-.774-2.598-.843-.999-.069-1.91.09-2.733.476-.794.388-1.504 1.063-2.131 2.023-.598.962-1.1 2.256-1.507 3.88-.375 1.598-.644 3.572-.805 5.921-.162 2.35-.167 4.357-.016 6.02.183 1.636.504 2.97.964 4.006.46 1.035 1.057 1.8 1.79 2.292.763.495 1.644.777 2.643.846ZM37.4 23.931l.976-14.187 7.446.512c3.29.226 5.796 1.122 7.518 2.686 1.751 1.567 2.527 3.804 2.327 6.712-.103 1.498-.456 2.772-1.06 3.823a6.778 6.778 0 0 1-2.387 2.536c-.987.61-2.153 1.047-3.499 1.309-1.344.232-2.824.293-4.44.181L41.33 27.3l-.258 3.745 9.209.634-.212 3.084-9.209-.633-.515 7.49-4.142-.285.515-7.49-3.613-.248.213-3.085 3.613.249.257-3.745-3.613-.249.212-3.084 3.613.248Zm4.872-10.333-.73 10.618 2.952.203c2.144.148 3.805-.18 4.981-.985 1.209-.832 1.877-2.188 2.006-4.068.12-1.733-.292-3.045-1.234-3.936-.91-.919-2.468-1.454-4.67-1.605l-3.305-.227Z" fill="#21201F"/><defs><linearGradient id="a" x1="4.478" y1="41.77" x2="37.732" y2="8.356" gradientUnits="userSpaceOnUse"><stop stop-color="#FF5C4D"/><stop offset=".25" stop-color="#EB469F"/><stop offset=".72" stop-color="#8341EF"/><stop offset="1" stop-color="#3F68F9"/></linearGradient></defs></svg>