<svg width="94" height="83" fill="none" xmlns="http://www.w3.org/2000/svg"><path d="M24.416 32.82c0-16.427 27.909-25.765 36.278-20.923 8.404 4.841 8.335 37.073 0 41.88-8.369 4.842-36.278-4.496-36.278-20.957Z" fill="url(#a)"/><path d="M24.416 32.82c0-16.427 27.909-25.765 36.278-20.923 8.404 4.841 8.335 37.073 0 41.88-8.369 4.842-36.278-4.496-36.278-20.957Z" fill="#fff" fill-opacity=".5"/><path d="M63.841 67.506c-4.288 0-8.646-2.974-8.646-8.646 0-3.527 1.902-6.432 4.807-7.816L51.6 19.401c-4.634-.07-8.542.034-12.174.31l-.276-3.457c4.08-.312 8.438-.416 13.798-.312l1.315.035 9.06 34.237c5.05-.242 9.13 3.528 9.13 8.646.035 4.946-3.7 8.646-8.61 8.646Zm0-13.833c-3.009 0-5.187 2.178-5.187 5.187 0 3.839 2.8 5.188 5.187 5.188 3.009 0 5.188-2.18 5.188-5.188 0-3.009-2.18-5.187-5.188-5.187ZM19.16 67.506c-4.289 0-8.646-2.974-8.646-8.646 0-4.945 3.7-8.646 8.646-8.646 4.322 0 7.712 2.87 8.472 6.917h9.96c3.977 0 5.845-.76 8.715-3.458a94.498 94.498 0 0 0 6.986-7.436l2.663 2.214a89.942 89.942 0 0 1-7.262 7.712c-3.528 3.354-6.225 4.426-11.102 4.426h-9.925c-.76 4.047-4.15 6.917-8.508 6.917Zm0-13.833c-3.01 0-5.188 2.178-5.188 5.187 0 3.839 2.801 5.188 5.188 5.188 3.008 0 5.187-2.18 5.187-5.188 0-3.009-2.179-5.187-5.188-5.187Zm43.747-29.638H60.66a2.28 2.28 0 0 1-2.283-2.283c0-1.245 1.003-2.248 2.282-2.248h2.248v4.53ZM78.124 16.416 67.692 5.533l1.726-1.793 10.457 10.884-1.75 1.792Zm-8.706 0-1.726-1.792L78.175 3.74l1.7 1.793-10.457 10.883ZM84.866 10.598V7.792H87.2c.575 0 1.074-.095 1.497-.285.423-.208.753-.503.99-.884.237-.398.356-.874.356-1.428 0-.52-.119-.961-.356-1.325-.22-.363-.55-.64-.99-.831-.44-.208-.981-.312-1.624-.312-.795 0-1.557.147-2.284.442-.711.277-1.473.736-2.285 1.377V1.532a7.966 7.966 0 0 1 1.472-.857 7.066 7.066 0 0 1 1.65-.493A9.487 9.487 0 0 1 87.531 0c1.184 0 2.208.208 3.071.623.863.416 1.531.996 2.005 1.74.474.745.711 1.602.711 2.572 0 .624-.11 1.186-.33 1.688-.22.503-.508.927-.863 1.273a4.257 4.257 0 0 1-1.218.831 4.557 4.557 0 0 1-1.396.39v-.104c.575.052 1.125.19 1.65.416a4.611 4.611 0 0 1 1.446.883c.423.38.753.84.99 1.377.254.536.38 1.151.38 1.844 0 1.125-.278 2.112-.837 2.96-.558.832-1.337 1.481-2.335 1.949-.998.45-2.166.675-3.503.675-.677 0-1.328-.06-1.954-.182a7.929 7.929 0 0 1-1.751-.493 8.484 8.484 0 0 1-1.498-.857v-3.013c.795.623 1.59 1.082 2.386 1.376.795.295 1.65.442 2.564.442.778 0 1.43-.121 1.954-.364.525-.242.914-.58 1.168-1.013.27-.45.406-.987.406-1.61 0-.624-.127-1.143-.381-1.559-.254-.415-.635-.727-1.142-.935-.508-.208-1.16-.312-1.955-.312h-2.233Z" fill="#21201F"/><defs><linearGradient id="a" x1="24.416" y1="32.837" x2="66.971" y2="32.837" gradientUnits="userSpaceOnUse"><stop stop-color="#FF5C4D"/><stop offset=".25" stop-color="#EB469F"/><stop offset=".72" stop-color="#8341EF"/><stop offset="1" stop-color="#3F68F9"/></linearGradient></defs></svg>