<svg width="83" height="83" fill="none" xmlns="http://www.w3.org/2000/svg"><path d="M18 40.485c0-14.418 24.266-22.613 31.542-18.364 7.307 4.25 7.247 32.539 0 36.758C42.266 63.129 18 54.933 18 40.485Z" fill="url(#a)"/><path d="M18 40.485c0-14.418 24.266-22.613 31.542-18.364 7.307 4.25 7.247 32.539 0 36.758C42.266 63.129 18 54.933 18 40.485Z" fill="#fff" fill-opacity=".5"/><path d="M51.631 71c-3.67 0-7.398-2.594-7.398-7.54 0-3.076 1.628-5.609 4.114-6.815L41.156 29.05c-3.966-.06-7.31.03-10.417.271l-.237-3.016c3.492-.271 7.22-.361 11.808-.271l1.124.03 7.753 29.857C55.507 55.71 59 58.997 59 63.46 59.03 67.772 55.833 71 51.63 71Zm0-12.063c-2.574 0-4.438 1.9-4.438 4.523 0 3.348 2.397 4.524 4.438 4.524 2.575 0 4.44-1.9 4.44-4.524 0-2.623-1.865-4.523-4.44-4.523ZM13.398 71C9.728 71 6 68.406 6 63.46c0-4.312 3.166-7.54 7.398-7.54 3.7 0 6.6 2.504 7.25 6.032h8.523c3.403 0 5-.663 7.457-3.015a81.794 81.794 0 0 0 5.978-6.484l2.278 1.93a77.86 77.86 0 0 1-6.214 6.725c-3.019 2.925-5.327 3.86-9.5 3.86h-8.492C20.027 68.497 17.127 71 13.398 71Zm0-12.063c-2.575 0-4.439 1.9-4.439 4.523 0 3.348 2.397 4.524 4.44 4.524 2.574 0 4.438-1.9 4.438-4.524 0-2.623-1.864-4.523-4.439-4.523ZM50.832 33.09H48.91c-1.066 0-1.953-.875-1.953-1.99 0-1.086.858-1.96 1.953-1.96h1.923v3.95ZM64.128 26.598 55 16.92l1.51-1.594 9.15 9.678-1.532 1.594Zm-7.618 0L55 25.004l9.172-9.678 1.489 1.594-9.15 9.678ZM70.027 21.424v-2.495h2.043c.504 0 .94-.084 1.31-.254a2.08 2.08 0 0 0 .867-.785c.207-.354.31-.778.31-1.27 0-.462-.103-.855-.31-1.178a1.83 1.83 0 0 0-.867-.74c-.384-.184-.858-.277-1.421-.277-.696 0-1.362.131-1.999.393-.622.246-1.288.654-1.999 1.224v-2.68a6.944 6.944 0 0 1 1.288-.761c.445-.2.926-.347 1.444-.44A8.172 8.172 0 0 1 72.36 12c1.036 0 1.932.185 2.687.554.755.37 1.34.886 1.755 1.548.414.662.622 1.424.622 2.287 0 .554-.097 1.054-.29 1.5a3.547 3.547 0 0 1-1.82 1.872c-.4.185-.807.3-1.222.346v-.092c.504.046.985.17 1.444.37.474.184.895.446 1.266.785.37.339.659.747.866 1.224.222.477.333 1.024.333 1.64 0 1-.244 1.879-.733 2.633-.489.74-1.17 1.317-2.043 1.732-.874.4-1.895.601-3.065.601a8.84 8.84 0 0 1-1.71-.162 6.855 6.855 0 0 1-1.533-.439 7.397 7.397 0 0 1-1.31-.762v-2.68c.696.555 1.392.963 2.088 1.225a6.32 6.32 0 0 0 2.243.393c.68 0 1.25-.108 1.71-.324.459-.215.8-.516 1.022-.9.237-.4.355-.878.355-1.432 0-.555-.111-1.017-.333-1.386-.222-.37-.555-.647-1-.832-.444-.185-1.014-.277-1.71-.277h-1.954Z" fill="#21201F"/><defs><linearGradient id="a" x1="18" y1="40.5" x2="55" y2="40.5" gradientUnits="userSpaceOnUse"><stop stop-color="#FF5C4D"/><stop offset=".25" stop-color="#EB469F"/><stop offset=".72" stop-color="#8341EF"/><stop offset="1" stop-color="#3F68F9"/></linearGradient></defs></svg>