<svg width="60" height="54" fill="none" xmlns="http://www.w3.org/2000/svg"><path d="M.692 35.613c-5.653-17.279 24.835-38.067 36.94-25.188 8.006 8.516 7.413 28.926-4.193 36.84-11.606 7.913-29.01-.226-32.747-11.652Z" fill="url(#a)"/><path d="M.692 35.613c-5.653-17.279 24.835-38.067 36.94-25.188 8.006 8.516 7.413 28.926-4.193 36.84-11.606 7.913-29.01-.226-32.747-11.652Z" fill="#fff" fill-opacity=".5"/><path d="M34.33 53.298C21.59 54.281 12 46.064 11.016 33.326c-.983-12.738 7.234-22.329 19.972-23.312 5.07-.391 9.753.647 13.604 2.994 5.68 3.48 9.13 9.496 9.708 16.978.983 12.738-7.234 22.33-19.972 23.312Zm-4.644-40.011c-10.183 1.439-16.393 9.227-15.577 19.8.856 11.1 8.882 17.976 19.982 17.12 11.099-.857 17.975-8.883 17.118-19.982-.498-6.462-3.418-11.648-8.247-14.573-2.904-1.766-6.393-2.647-10.184-2.604l1.682 21.797-14.129 1.09-.255-3.308 11.037-.852-1.427-18.488Zm25.42 4.57-1.782-2.538 4.102-2.867 1.782 2.538-4.102 2.867Zm-6.658-7.293L45.86 8.867l5.014-7.572 2.588 1.698-5.014 7.571ZM38.15 6.103l-3.099-.259c.05-.564-.145-1.077-.616-1.539-1.687-1.704-6.386-1.342-7.791.602-.364.525-.478 1.063-.345 1.581l-3.022.731c-.36-1.434-.039-2.92.862-4.14C25.376 1.365 27.652.225 30.187.03c2.566-.198 4.96.582 6.443 2.085 1.111 1.096 1.656 2.515 1.521 3.988Z" fill="#21201F"/><defs><linearGradient id="a" x1="41.756" y1="16.678" x2="2.658" y2="39.701" gradientUnits="userSpaceOnUse"><stop stop-color="#FF5C4D"/><stop offset=".25" stop-color="#EB469F"/><stop offset=".72" stop-color="#8341EF"/><stop offset="1" stop-color="#3F68F9"/></linearGradient></defs></svg>