<svg width="62" height="47" fill="none" xmlns="http://www.w3.org/2000/svg"><path d="M.662 31.318C-4.745 13.294 24.416-8.39 35.995 5.044c7.656 8.883 7.09 30.173-4.011 38.428C20.883 51.725 4.235 43.236.662 31.317Z" fill="url(#a)"/><path d="M.662 31.318C-4.745 13.294 24.416-8.39 35.995 5.044c7.656 8.883 7.09 30.173-4.011 38.428C20.883 51.725 4.235 43.236.662 31.317Z" fill="#fff" fill-opacity=".5"/><path d="M21.57 19.9a5.998 5.998 0 0 1 5.453-6.498l23.524-2.058a5.998 5.998 0 0 1 6.498 5.452l.667 7.617a5.998 5.998 0 0 1-5.453 6.498l-23.524 2.058a5.998 5.998 0 0 1-6.498-5.453L21.57 19.9Z" stroke="#21201F" stroke-width="2.715"/><defs><linearGradient id="a" x1="39.938" y1="11.567" x2=".944" y2="32.622" gradientUnits="userSpaceOnUse"><stop stop-color="#FF5C4D"/><stop offset=".25" stop-color="#EB469F"/><stop offset=".72" stop-color="#8341EF"/><stop offset="1" stop-color="#3F68F9"/></linearGradient></defs></svg>